<?xml version="1.0" encoding="utf-8"?>
<!-- Generator: Adobe Illustrator 25.2.3, SVG Export Plug-In . SVG Version: 6.00 Build 0)  -->
<svg version="1.1" id="Layer_1" xmlns="http://www.w3.org/2000/svg" xmlns:xlink="http://www.w3.org/1999/xlink" x="0px" y="0px"
	 viewBox="0 0 184.8 201.2" style="enable-background:new 0 0 184.8 201.2;" xml:space="preserve">
<style type="text/css">
	.st0{fill-rule:evenodd;clip-rule:evenodd;fill:#130048;}
</style>
<g id="Layer_2_1_">
	<g id="Layer_1-2">
		<g id="Fill-773">
			<path class="st0" d="M161,113.4l-38.6-50.6V10.4h31.9c3.7,0,6.7,3,6.7,6.7V113.4z M154.7,134.9h-28.9c-6.5,0-12.6-3-16.6-8.2
				L26.3,18.5c-1.7-2.2-1.3-5.3,0.8-7c0.9-0.7,2-1.1,3.2-1.1h28.8c6.5,0,12.6,3,16.6,8.2l82.9,108.1c1.7,2.2,1.3,5.3-0.8,7
				C156.9,134.5,155.8,134.9,154.7,134.9L154.7,134.9z M62.6,134.9H30.6c-3.7,0-6.7-3-6.7-6.7c0,0,0,0,0,0V31.7l38.6,50.8
				L62.6,134.9z M154.1,0h-36.4c-2.9,0-5.2,2.3-5.2,5.2v44.6L83.8,12.3C77.9,4.5,68.7,0,59,0H30.8c-9.4,0-17,7.6-17,17v111.4
				c0,9.4,7.6,17,17,17h36.5c2.9,0,5.2-2.3,5.2-5.2V95.1L101,133c5.9,7.8,15.1,12.4,24.9,12.4h28.2c9.4,0,17-7.6,17-17V17
				C171.1,7.6,163.5,0,154.1,0L154.1,0z"/>
		</g>
		<g id="Fill-775">
			<polygon class="st0" points="27.2,200.6 21.5,200.6 7.3,184.4 7.3,200.6 0,200.6 0,171 5.6,171 19.9,187.7 19.9,171 27.2,171 			
				"/>
		</g>
		<g id="Fill-777">
			<path class="st0" d="M35,188h8.6c-0.2-2.1-2.1-3.7-4.2-3.5C37.3,184.4,35.4,185.9,35,188 M50.1,192v0.1h-15
				c0.6,2.1,2.5,3.5,4.7,3.4c1.3,0.1,2.5-0.5,3.3-1.5h7c-1,4.3-5,7.1-10.2,7.1c-6.9,0-11.5-4.6-11.5-11s4.5-11,11.2-11
				c6.1,0,10.8,4.2,10.8,10.6C50.3,190.4,50.3,191.2,50.1,192"/>
		</g>
		<g id="Fill-779">
			<path class="st0" d="M67.2,193.3v-6.5c-1.1-1.3-2.7-2.1-4.4-2c-2.9,0.1-5.1,2.6-5,5.5c0.1,2.7,2.3,4.9,5,5
				C64.5,195.3,66.2,194.5,67.2,193.3L67.2,193.3z M74.2,200.6h-7v-1.2c-1.7,1.1-3.7,1.6-5.8,1.6c-6.1,0-11-4.9-11-11s4.9-11,11-11
				c2,0,4.1,0.5,5.8,1.6v-1.1h7V200.6z"/>
		</g>
		<g id="Fill-781">
			<path class="st0" d="M90.2,185.9c-3.4,0.1-5.6,1-7.2,2.7v12h-7v-21h7v2.3c2-1.8,4.6-2.7,7.2-2.6V185.9z"/>
		</g>
		<g id="Fill-783">
			<path class="st0" d="M113.2,177.5V171h-22v29.6h7.3v-10.4h11V190c0-2.2,0.5-4.3,1.6-6.3H98.5v-6.2L113.2,177.5z"/>
		</g>
		<g id="Fill-785">
			<path class="st0" d="M148.7,185.9c-3.4,0.1-5.6,1-7.2,2.7v12h-7v-21h7v2.3c2-1.7,4.6-2.7,7.2-2.6V185.9z"/>
		</g>
		<g id="Fill-787">
			<path class="st0" d="M184.8,188.5v12h-7.1v-10.9c0-3-1.4-4.4-3.8-4.4c-1.3,0-2.5,0.7-3.2,1.7c0.1,0.5,0.1,1,0.1,1.6v12h-7v-10.9
				c0-3-1.5-4.4-3.8-4.4c-1.3,0.1-2.5,0.8-3.2,1.9v13.5h-7v-21h7v1.3c1.4-1.3,3.3-2,5.3-1.9c2.5-0.1,4.8,1,6.5,2.8
				c2-1.9,4.7-2.9,7.5-2.8C181.1,178.9,184.9,182.5,184.8,188.5"/>
		</g>
		<g id="Fill-789">
			<path class="st0" d="M126.9,190.1c0-2.6-2.1-4.8-4.8-4.8c-2.6,0-4.8,2.1-4.8,4.8c0,0,0,0,0,0c-0.2,2.6,1.8,4.9,4.5,5.1
				c2.6,0.2,4.9-1.8,5.1-4.5C126.9,190.5,126.9,190.3,126.9,190.1 M133.5,190.1c0,6.4-4.8,11.2-11.4,11.2s-11.4-4.8-11.4-11.2
				s4.8-11,11.4-11C128.8,179.1,133.5,183.7,133.5,190.1"/>
		</g>
	</g>
</g>
</svg>
